paradisio.ufo
<glyph name="comma" format="2">
	<advance width="252"/>
	<unicode hex="002C"/>
	<outline>
		<contour>
			<point x="126" y="-15" type="line"/>
			<point x="78" y="-15"/>
			<point x="65" y="3"/>
			<point x="65" y="48" type="curve" smooth="yes"/>
			<point x="65" y="91"/>
			<point x="78" y="109"/>
			<point x="126" y="109" type="curve" smooth="yes"/>
			<point x="174" y="109"/>
			<point x="187" y="91"/>
			<point x="187" y="7" type="curve" smooth="yes"/>
			<point x="187" y="-114"/>
			<point x="147" y="-134"/>
			<point x="70" y="-134" type="curve"/>
			<point x="70" y="-65" type="line"/>
			<point x="97" y="-65"/>
			<point x="114" y="-55"/>
			<point x="114" y="-22" type="curve" smooth="yes"/>
			<point x="114" y="4" type="line"/>
		</contour>
	</outline>
</glyph>
<glyph name="period" format="2">
	<advance width="252"/>
	<unicode hex="002E"/>
	<outline>
		<contour>
			<point x="126" y="-15" type="curve" smooth="yes"/>
			<point x="174" y="-15"/>
			<point x="187" y="3"/>
			<point x="187" y="48" type="curve" smooth="yes"/>
			<point x="187" y="91"/>
			<point x="174" y="109"/>
			<point x="126" y="109" type="curve" smooth="yes"/>
			<point x="78" y="109"/>
			<point x="65" y="91"/>
			<point x="65" y="48" type="curve" smooth="yes"/>
			<point x="65" y="3"/>
			<point x="78" y="-15"/>
		</contour>
	</outline>
</glyph>
<glyph name="A" format="2">
	<advance width="680"/>
	<unicode hex="0041"/>
	<outline>
		<contour>
			<point x="120" y="155" type="line"/>
			<point x="560" y="155" type="line"/>
			<point x="560" y="252" type="line"/>
			<point x="120" y="252" type="line"/>
		</contour>
		<contour>
			<point x="15" y="0" type="line"/>
			<point x="128" y="0" type="line"/>
			<point x="340" y="558" type="line"/>
			<point x="552" y="0" type="line"/>
			<point x="665" y="0" type="line"/>
			<point x="410" y="650" type="line"/>
			<point x="270" y="650" type="line"/>
		</contour>
	</outline>
</glyph>
<glyph name="D" format="2">
	<advance width="678"/>
	<unicode hex="0044"/>
	<anchor x="116" y="650" name="top"/>
	<outline>
		<contour>
			<point x="65" y="0" type="line"/>
			<point x="167" y="0" type="line"/>
			<point x="167" y="650" type="line"/>
			<point x="65" y="650" type="line"/>
		</contour>
		<contour>
			<point x="323" y="553" type="line" smooth="yes"/>
			<point x="476" y="553"/>
			<point x="533" y="491"/>
			<point x="533" y="325" type="curve" smooth="yes"/>
			<point x="533" y="159"/>
			<point x="476" y="97"/>
			<point x="323" y="97" type="curve" smooth="yes"/>
			<point x="134" y="97" type="line"/>
			<point x="134" y="0" type="line"/>
			<point x="323" y="0" type="line" smooth="yes"/>
			<point x="549" y="0"/>
			<point x="633" y="88"/>
			<point x="633" y="325" type="curve" smooth="yes"/>
			<point x="633" y="562"/>
			<point x="549" y="650"/>
			<point x="323" y="650" type="curve" smooth="yes"/>
			<point x="134" y="650" type="line"/>
			<point x="134" y="553" type="line"/>
		</contour>
	</outline>
</glyph>
<glyph name="F" format="2">
	<advance width="543"/>
	<unicode hex="0046"/>
	<outline>
		<contour>
			<point x="523" y="650" type="line"/>
			<point x="65" y="650" type="line"/>
			<point x="65" y="0" type="line"/>
			<point x="167" y="0" type="line"/>
			<point x="167" y="553" type="line"/>
			<point x="523" y="553" type="line"/>
		</contour>
		<contour>
			<point x="493" y="363" type="line"/>
			<point x="130" y="363" type="line"/>
			<point x="130" y="266" type="line"/>
			<point x="493" y="266" type="line"/>
		</contour>
	</outline>
</glyph>
<glyph name="G" format="2">
	<advance width="682"/>
	<unicode hex="0047"/>
	<outline>
		<contour>
			<point x="647" y="279" type="curve" smooth="yes"/>
			<point x="647" y="353" type="line"/>
			<point x="335" y="353" type="line"/>
			<point x="335" y="256" type="line"/>
			<point x="592" y="256" type="line"/>
			<point x="545" y="310" type="line"/>
			<point x="545" y="281" type="line" smooth="yes"/>
			<point x="545" y="141"/>
			<point x="498" y="80"/>
			<point x="346" y="80" type="curve" smooth="yes"/>
			<point x="194" y="80"/>
			<point x="144" y="141"/>
			<point x="144" y="324" type="curve" smooth="yes"/>
			<point x="144" y="510"/>
			<point x="194" y="570"/>
			<point x="346" y="570" type="curve" smooth="yes"/>
			<point x="449" y="570"/>
			<point x="502" y="546"/>
			<point x="532" y="477" type="curve"/>
			<point x="642" y="477" type="line"/>
			<point x="607" y="612"/>
			<point x="525" y="665"/>
			<point x="346" y="665" type="curve" smooth="yes"/>
			<point x="126" y="665"/>
			<point x="45" y="573"/>
			<point x="45" y="324" type="curve" smooth="yes"/>
			<point x="45" y="77"/>
			<point x="126" y="-15"/>
			<point x="346" y="-15" type="curve" smooth="yes"/>
			<point x="566" y="-15"/>
			<point x="647" y="77"/>
		</contour>
	</outline>
</glyph>
<glyph name="H" format="2">
	<advance width="690"/>
	<unicode hex="0048"/>
	<outline>
		<contour>
			<point x="65" y="650" type="line"/>
			<point x="65" y="0" type="line"/>
			<point x="167" y="0" type="line"/>
			<point x="167" y="650" type="line"/>
		</contour>
		<contour>
			<point x="523" y="650" type="line"/>
			<point x="523" y="0" type="line"/>
			<point x="625" y="0" type="line"/>
			<point x="625" y="650" type="line"/>
		</contour>
		<contour>
			<point x="125" y="377" type="line"/>
			<point x="125" y="280" type="line"/>
			<point x="565" y="280" type="line"/>
			<point x="565" y="377" type="line"/>
		</contour>
	</outline>
</glyph>
<glyph name="I" format="2">
	<advance width="232"/>
	<unicode hex="0049"/>
	<anchor x="116" y="650" name="top"/>
	<outline>
		<contour>
			<point x="65" y="650" type="line"/>
			<point x="65" y="0" type="line"/>
			<point x="167" y="0" type="line"/>
			<point x="167" y="650" type="line"/>
		</contour>
	</outline>
</glyph>
<glyph name="J" format="2">
	<advance width="570"/>
	<unicode hex="004A"/>
	<outline>
		<contour>
			<point x="142" y="246" type="line"/>
			<point x="40" y="246" type="line"/>
			<point x="40" y="204" type="line" smooth="yes"/>
			<point x="40" y="86"/>
			<point x="86" y="-15"/>
			<point x="275" y="-15" type="curve" smooth="yes"/>
			<point x="464" y="-15"/>
			<point x="510" y="86"/>
			<point x="510" y="204" type="curve" smooth="yes"/>
			<point x="510" y="650" type="line"/>
			<point x="408" y="650" type="line"/>
			<point x="408" y="214" type="line" smooth="yes"/>
			<point x="408" y="116"/>
			<point x="365" y="80"/>
			<point x="274" y="80" type="curve" smooth="yes"/>
			<point x="183" y="80"/>
			<point x="142" y="116"/>
			<point x="142" y="214" type="curve" smooth="yes"/>
		</contour>
	</outline>
</glyph>
<glyph name="K" format="2">
	<advance width="675"/>
	<unicode hex="004B"/>
	<outline>
		<contour>
			<point x="66" y="662" type="line"/>
			<point x="66" y="0" type="line"/>
			<point x="167" y="0" type="line"/>
			<point x="167" y="662" type="line"/>
		</contour>
		<contour>
			<point x="139" y="374" type="line"/>
			<point x="139" y="280" type="line"/>
			<point x="400" y="280" type="line"/>
			<point x="323" y="318" type="line"/>
			<point x="544" y="0" type="line"/>
			<point x="670" y="0" type="line"/>
			<point x="408" y="375" type="line"/>
			<point x="408" y="301" type="line"/>
			<point x="650" y="650" type="line"/>
			<point x="530" y="650" type="line"/>
			<point x="317" y="336" type="line"/>
			<point x="400" y="374" type="line"/>
		</contour>
	</outline>
</glyph>
<glyph name="L" format="2">
	<advance width="525"/>
	<unicode hex="004C"/>
	<outline>
		<contour>
			<point x="65" y="650" type="line"/>
			<point x="65" y="0" type="line"/>
			<point x="505" y="0" type="line"/>
			<point x="505" y="97" type="line"/>
			<point x="167" y="97" type="line"/>
			<point x="167" y="650" type="line"/>
		</contour>
	</outline>
</glyph>
<glyph name="P" format="2">
	<advance width="608"/>
	<unicode hex="0050"/>
	<outline>
		<contour>
			<point x="314" y="297" type="curve" smooth="yes"/>
			<point x="142" y="297" type="line"/>
			<point x="142" y="200" type="line"/>
			<point x="314" y="200" type="line" smooth="yes"/>
			<point x="495" y="200"/>
			<point x="573" y="271"/>
			<point x="573" y="425" type="curve" smooth="yes"/>
			<point x="573" y="579"/>
			<point x="495" y="650"/>
			<point x="314" y="650" type="curve" smooth="yes"/>
			<point x="65" y="650" type="line"/>
			<point x="65" y="0" type="line"/>
			<point x="168" y="0" type="line"/>
			<point x="168" y="590" type="line"/>
			<point x="147" y="553" type="line"/>
			<point x="314" y="553" type="line" smooth="yes"/>
			<point x="430" y="553"/>
			<point x="473" y="518"/>
			<point x="473" y="425" type="curve" smooth="yes"/>
			<point x="473" y="332"/>
			<point x="430" y="297"/>
		</contour>
	</outline>
</glyph>
<glyph name="U" format="2">
	<advance width="670"/>
	<unicode hex="0055"/>
	<outline>
		<contour>
			<point x="60" y="264" type="line" smooth="yes"/>
			<point x="60" y="115"/>
			<point x="106" y="-15"/>
			<point x="335" y="-15" type="curve" smooth="yes"/>
			<point x="564" y="-15"/>
			<point x="610" y="115"/>
			<point x="610" y="264" type="curve" smooth="yes"/>
			<point x="610" y="650" type="line"/>
			<point x="508" y="650" type="line"/>
			<point x="508" y="274" type="line" smooth="yes"/>
			<point x="508" y="133"/>
			<point x="461" y="80"/>
			<point x="334" y="80" type="curve" smooth="yes"/>
			<point x="209" y="80"/>
			<point x="162" y="133"/>
			<point x="162" y="274" type="curve" smooth="yes"/>
			<point x="162" y="650" type="line"/>
			<point x="60" y="650" type="line"/>
		</contour>
	</outline>
</glyph>
<glyph name="V" format="2">
	<advance width="660"/>
	<unicode hex="0056"/>
	<outline>
		<contour>
			<point x="15" y="650" type="line"/>
			<point x="260" y="0" type="line"/>
			<point x="400" y="0" type="line"/>
			<point x="645" y="650" type="line"/>
			<point x="532" y="650" type="line"/>
			<point x="330" y="92" type="line"/>
			<point x="128" y="650" type="line"/>
		</contour>
	</outline>
</glyph>
<glyph name="X" format="2">
	<advance width="637"/>
	<unicode hex="0058"/>
	<guideline x="469" y="324" angle="0"/>
	<outline>
		<contour>
			<point x="597" y="650" type="line"/>
			<point x="483" y="650" type="line"/>
			<point x="255" y="328" type="line"/>
			<point x="369" y="328" type="line"/>
		</contour>
		<contour>
			<point x="15" y="650" type="line"/>
			<point x="508" y="0" type="line"/>
			<point x="627" y="0" type="line"/>
			<point x="134" y="650" type="line"/>
		</contour>
		<contour>
			<point x="377" y="341" type="line"/>
			<point x="263" y="341" type="line"/>
			<point x="10" y="0" type="line"/>
			<point x="124" y="0" type="line"/>
		</contour>
	</outline>
</glyph>
<glyph name="Y" format="2">
	<advance width="604"/>
	<unicode hex="0059"/>
	<outline>
		<contour>
			<point x="249" y="0" type="line"/>
			<point x="353" y="0" type="line"/>
			<point x="353" y="224" type="line"/>
			<point x="599" y="650" type="line"/>
			<point x="485" y="650" type="line"/>
			<point x="275" y="272" type="line"/>
			<point x="329" y="272" type="line"/>
			<point x="119" y="650" type="line"/>
			<point x="5" y="650" type="line"/>
			<point x="251" y="224" type="line"/>
		</contour>
	</outline>
</glyph>
<glyph name="e" format="2">
	<advance width="561"/>
	<unicode hex="0065"/>
	<outline>
		<contour>
			<point x="286" y="-15" type="curve" smooth="yes"/>
			<point x="423" y="-15"/>
			<point x="494" y="27"/>
			<point x="511" y="132" type="curve"/>
			<point x="411" y="132" type="line"/>
			<point x="398" y="89"/>
			<point x="357" y="73"/>
			<point x="286" y="73" type="curve" smooth="yes"/>
			<point x="175" y="73"/>
			<point x="138" y="113"/>
			<point x="138" y="234" type="curve" smooth="yes"/>
			<point x="138" y="256" type="line" smooth="yes"/>
			<point x="138" y="385"/>
			<point x="175" y="427"/>
			<point x="279" y="427" type="curve" smooth="yes"/>
			<point x="383" y="427"/>
			<point x="411" y="383"/>
			<point x="411" y="245" type="curve" smooth="yes"/>
			<point x="411" y="228" type="line"/>
			<point x="442" y="290" type="line"/>
			<point x="118" y="290" type="line"/>
			<point x="118" y="208" type="line"/>
			<point x="511" y="208" type="line"/>
			<point x="511" y="250" type="line" smooth="yes"/>
			<point x="511" y="443"/>
			<point x="448" y="515"/>
			<point x="279" y="515" type="curve" smooth="yes"/>
			<point x="110" y="515"/>
			<point x="45" y="443"/>
			<point x="45" y="250" type="curve" smooth="yes"/>
			<point x="45" y="57"/>
			<point x="110" y="-15"/>
		</contour>
	</outline>
</glyph>
<glyph name="f" format="2">
	<advance width="393"/>
	<unicode hex="0066"/>
	<outline>
		<contour>
			<point x="5" y="414" type="line"/>
			<point x="388" y="414" type="line"/>
			<point x="388" y="500" type="line"/>
			<point x="5" y="500" type="line"/>
		</contour>
		<contour>
			<point x="300" y="705" type="curve" smooth="yes"/>
			<point x="171" y="705"/>
			<point x="125" y="655"/>
			<point x="125" y="518" type="curve" smooth="yes"/>
			<point x="125" y="0" type="line"/>
			<point x="221" y="0" type="line"/>
			<point x="221" y="520" type="line" smooth="yes"/>
			<point x="221" y="586"/>
			<point x="241" y="608"/>
			<point x="300" y="610" type="curve" smooth="yes"/>
			<point x="331" y="611"/>
			<point x="363" y="609"/>
			<point x="388" y="608" type="curve"/>
			<point x="388" y="700" type="line"/>
			<point x="359" y="702"/>
			<point x="331" y="705"/>
		</contour>
	</outline>
</glyph>
<glyph name="n" format="2">
	<advance width="569"/>
	<unicode hex="006E"/>
	<guideline x="152" y="452" angle="0"/>
	<anchor x="307" y="500" name="top"/>
	<outline>
		<contour>
			<point x="65" y="500" type="line"/>
			<point x="65" y="0" type="line"/>
			<point x="160" y="0" type="line"/>
			<point x="160" y="362" type="line"/>
			<point x="145" y="362" type="line"/>
			<point x="145" y="500" type="line"/>
		</contour>
		<contour>
			<point x="124" y="292" type="curve"/>
			<point x="160" y="292" type="line"/>
			<point x="160" y="392"/>
			<point x="197" y="427"/>
			<point x="292" y="427" type="curve" smooth="yes"/>
			<point x="387" y="427"/>
			<point x="424" y="386"/>
			<point x="424" y="292" type="curve" smooth="yes"/>
			<point x="424" y="0" type="line"/>
			<point x="519" y="0" type="line"/>
			<point x="519" y="292" type="line" smooth="yes"/>
			<point x="519" y="462"/>
			<point x="451" y="515"/>
			<point x="310" y="515" type="curve" smooth="yes"/>
			<point x="178" y="515"/>
			<point x="124" y="444"/>
		</contour>
	</outline>
</glyph>
<glyph name="r" format="2">
	<advance width="375"/>
	<unicode hex="0072"/>
	<outline>
		<contour>
			<point x="65" y="500" type="line"/>
			<point x="65" y="0" type="line"/>
			<point x="160" y="0" type="line"/>
			<point x="160" y="367" type="line"/>
			<point x="145" y="362" type="line"/>
			<point x="145" y="500" type="line"/>
		</contour>
		<contour>
			<point x="124" y="292" type="curve"/>
			<point x="160" y="292" type="line"/>
			<point x="160" y="381"/>
			<point x="202" y="412"/>
			<point x="310" y="412" type="curve" smooth="yes"/>
			<point x="360" y="412" type="line"/>
			<point x="360" y="500" type="line"/>
			<point x="310" y="500" type="line" smooth="yes"/>
			<point x="178" y="500"/>
			<point x="124" y="434"/>
		</contour>
	</outline>
</glyph>
<glyph name="z" format="2">
	<advance width="506"/>
	<unicode hex="007A"/>
	<outline>
		<contour>
			<point x="40" y="87" type="line"/>
			<point x="40" y="0" type="line"/>
			<point x="476" y="0" type="line"/>
			<point x="476" y="87" type="line"/>
			<point x="167" y="87" type="line"/>
			<point x="471" y="413" type="line"/>
			<point x="471" y="500" type="line"/>
			<point x="45" y="500" type="line"/>
			<point x="45" y="413" type="line"/>
			<point x="340" y="413" type="line"/>
		</contour>
	</outline>
</glyph>
<glyph name="jdotless" format="2">
	<advance width="253"/>
	<unicode hex="0237"/>
	<anchor x="140" y="500" name="top"/>
	<outline>
		<contour>
			<point x="188" y="500" type="line"/>
			<point x="92" y="500" type="line"/>
			<point x="92" y="-20" type="line" smooth="yes"/>
			<point x="92" y="-86"/>
			<point x="68" y="-110"/>
			<point x="2" y="-110" type="curve" smooth="yes"/>
			<point x="-5" y="-110" type="line"/>
			<point x="-5" y="-200" type="line"/>
			<point x="2" y="-200" type="line" smooth="yes"/>
			<point x="138" y="-200"/>
			<point x="188" y="-151"/>
			<point x="188" y="-18" type="curve" smooth="yes"/>
		</contour>
	</outline>
</glyph>
<glyph name="acutecomb" format="2">
	<advance width="0"/>
	<unicode hex="0301"/>
	<anchor x="0" y="500" name="_top"/>
	<outline>
		<contour>
			<point x="-45" y="577" type="line"/>
			<point x="41" y="577" type="line"/>
			<point x="148" y="772" type="line"/>
			<point x="38" y="774" type="line"/>
		</contour>
	</outline>
</glyph>
<glyph name="dotaccentcomb" format="2">
	<advance width="0"/>
	<unicode hex="0307"/>
	<anchor x="0" y="500" name="_top"/>
	<outline>
		<contour>
			<point x="0" y="576" type="curve" smooth="yes"/>
			<point x="56" y="576"/>
			<point x="71" y="594"/>
			<point x="71" y="639" type="curve" smooth="yes"/>
			<point x="71" y="682"/>
			<point x="56" y="700"/>
			<point x="0" y="700" type="curve" smooth="yes"/>
			<point x="-56" y="700"/>
			<point x="-71" y="682"/>
			<point x="-71" y="639" type="curve" smooth="yes"/>
			<point x="-71" y="594"/>
			<point x="-56" y="576"/>
		</contour>
	</outline>
</glyph>
<glyph name="quoteleft" format="2">
	<advance width="212"/>
	<unicode hex="2018"/>
	<outline>
		<contour>
			<point x="106" y="465" type="curve" smooth="yes"/>
			<point x="60" y="465"/>
			<point x="45" y="493"/>
			<point x="45" y="584" type="curve" smooth="yes"/>
			<point x="45" y="693"/>
			<point x="89" y="715"/>
			<point x="162" y="715" type="curve"/>
			<point x="162" y="650" type="line"/>
			<point x="131" y="650"/>
			<point x="118" y="639"/>
			<point x="118" y="601" type="curve" smooth="yes"/>
			<point x="118" y="570" type="line"/>
			<point x="106" y="589" type="line"/>
			<point x="154" y="589"/>
			<point x="167" y="571"/>
			<point x="167" y="526" type="curve" smooth="yes"/>
			<point x="167" y="483"/>
			<point x="154" y="465"/>
		</contour>
	</outline>
</glyph>
<glyph name="dieresiscomb.case" format="2">
	<advance width="0"/>
	<anchor x="0" y="650" name="_top"/>
	<outline>
		<contour>
			<point x="-128" y="711" type="curve" smooth="yes"/>
			<point x="-72" y="711"/>
			<point x="-57" y="729"/>
			<point x="-57" y="774" type="curve" smooth="yes"/>
			<point x="-57" y="817"/>
			<point x="-72" y="835"/>
			<point x="-128" y="835" type="curve" smooth="yes"/>
			<point x="-184" y="835"/>
			<point x="-199" y="817"/>
			<point x="-199" y="774" type="curve" smooth="yes"/>
			<point x="-199" y="729"/>
			<point x="-184" y="711"/>
		</contour>
		<contour>
			<point x="129" y="712" type="curve" smooth="yes"/>
			<point x="185" y="712"/>
			<point x="200" y="730"/>
			<point x="200" y="775" type="curve" smooth="yes"/>
			<point x="200" y="818"/>
			<point x="185" y="836"/>
			<point x="129" y="836" type="curve" smooth="yes"/>
			<point x="73" y="836"/>
			<point x="58" y="818"/>
			<point x="58" y="775" type="curve" smooth="yes"/>
			<point x="58" y="730"/>
			<point x="73" y="712"/>
		</contour>
	</outline>
</glyph>
<glyph name="tildecomb.case" format="2">
	<advance width="0"/>
	<anchor x="0" y="650" name="_top"/>
	<outline>
		<contour>
			<point x="-206" y="726" type="curve" smooth="yes"/>
			<point x="-206" y="711" type="line"/>
			<point x="-126" y="711" type="line"/>
			<point x="-126" y="726" type="line" smooth="yes"/>
			<point x="-126" y="751"/>
			<point x="-113" y="762"/>
			<point x="-89" y="762" type="curve" smooth="yes"/>
			<point x="-62" y="762"/>
			<point x="-48" y="745"/>
			<point x="-26" y="733" type="curve" smooth="yes"/>
			<point x="5" y="715"/>
			<point x="37" y="698"/>
			<point x="89" y="698" type="curve" smooth="yes"/>
			<point x="170" y="698"/>
			<point x="206" y="735"/>
			<point x="206" y="810" type="curve" smooth="yes"/>
			<point x="206" y="825" type="line"/>
			<point x="126" y="825" type="line"/>
			<point x="126" y="810" type="line" smooth="yes"/>
			<point x="126" y="785"/>
			<point x="113" y="774"/>
			<point x="89" y="774" type="curve" smooth="yes"/>
			<point x="62" y="774"/>
			<point x="42" y="787"/>
			<point x="20" y="800" type="curve" smooth="yes"/>
			<point x="-8" y="816"/>
			<point x="-30" y="838"/>
			<point x="-89" y="838" type="curve" smooth="yes"/>
			<point x="-170" y="838"/>
			<point x="-206" y="801"/>
		</contour>
	</outline>
</glyph>
